# xmcd CD database file
#
# Track frame offsets:
#	150
#	17881
#	34537
#	48971
#	66295
#	80333
#	98982
#	115077
#	127698
#	144489
#	159620
#	175461
#	192552
#	209354
#	225041
#	240883
#	257063
#	272107
#	288815
#
# Disc length: 4353 seconds
#
# Revision: 1
# Processed by: cddbd v1.5.2PL0 Copyright (c) Steve Scherf et al.
# Submitted via: Feurio! 1.68 - http://www.feurio.com
#
DISCID=fb10ff13
DTITLE=Various Artist - Universal Music Winter Edition
DYEAR=1900
DGENRE=
TTITLE0=DJ Ötzi - I Will Leb'n
TTITLE1=Markus Luca - Jugenliebe
TTITLE2=Olaf Henning - Cowboy and Indianer Hitversion
TTITLE3=Hermes House Band - The Rythm Of The Night
TTITLE4=Kate Ryan - Voyage Voyage
TTITLE5=B.W.O. - Chariots Of Fire
TTITLE6=Alex C. Feat. Y-Ass - Du hast den schönsten Arsch der Welt
TTITLE7=Frank Styles Pres. F&K - Die mit dem roten Halsband
TTITLE8=Hot Banditoz - Hands Up
TTITLE9=Sabana - Pasame La Botella
TTITLE10=Kaminski - Klatschen (wir sind aus dem Ruhrgebiet)
TTITLE11=Ich and Ich - Vom selben Stern
TTITLE12=Howard Carpendale - Na und?
TTITLE13=Trenkwalder - Zähl Deine Freunde
TTITLE14=Die Gurkentruppe - Schade! England bleibt zu Haus!
TTITLE15=Sänder wird gesucht - Tä Te Weh
TTITLE16=Yvie - Ich bin ohne meinen Freund hier
TTITLE17=Alex C. Feat. Y-Ass - Doktorspiele
TTITLE18=DJ Ötzi - Discofox Megamix
EXTD=
EXTT0=
EXTT1=
EXTT2=
EXTT3=
EXTT4=
EXTT5=
EXTT6=
EXTT7=
EXTT8=
EXTT9=
EXTT10=
EXTT11=
EXTT12=
EXTT13=
EXTT14=
EXTT15=
EXTT16=
EXTT17=
EXTT18=
PLAYORDER=
